<?xml version="1.0" standalone="no"?><!DOCTYPE svg PUBLIC "-//W3C//DTD SVG 1.1//EN" "http://www.w3.org/Graphics/SVG/1.1/DTD/svg11.dtd"><svg t="1749112773728" class="icon" viewBox="0 0 1024 1024" version="1.1" xmlns="http://www.w3.org/2000/svg" p-id="12951" xmlns:xlink="http://www.w3.org/1999/xlink" width="200" height="200"><path d="M941.709938 0H82.290062A82.290062 82.290062 0 0 0 0 82.290062v859.419876A82.290062 82.290062 0 0 0 82.290062 1022.53923h859.419876A82.290062 82.290062 0 0 0 1022.53923 941.709938V82.290062A82.290062 82.290062 0 0 0 941.709938 0zM188.439372 553.631954a40.901569 40.901569 0 0 1-29.215406-70.116975L292.154066 351.558726 159.223966 218.628626a40.901569 40.901569 0 0 1 58.430813-57.94389l160.197813 162.145507a40.901569 40.901569 0 0 1 0 57.943889l-160.197813 160.684736a40.901569 40.901569 0 0 1-29.215407 12.173086z m443.587257 0H405.120304a40.901569 40.901569 0 0 1 0-82.290061H633.000476a40.901569 40.901569 0 0 1 0 82.290061z" fill="#ffffff" p-id="12952"></path></svg>