<?xml version="1.0" standalone="no"?><!DOCTYPE svg PUBLIC "-//W3C//DTD SVG 1.1//EN" "http://www.w3.org/Graphics/SVG/1.1/DTD/svg11.dtd"><svg t="1749390091122" class="icon" viewBox="0 0 1024 1024" version="1.1" xmlns="http://www.w3.org/2000/svg" p-id="4273" xmlns:xlink="http://www.w3.org/1999/xlink" width="200" height="200"><path d="M933.81 392.428l60.297 50.649a59.077 59.077 0 0 1 7.286 83.22L656.778 937.078a29.538 29.538 0 0 1-12.21 8.625l-140.287 52.973a19.692 19.692 0 0 1-26.467-21.19l21.937-152.772a29.538 29.538 0 0 1 6.578-14.77l344.221-410.23a59.077 59.077 0 0 1 83.22-7.286zM354.461 955.077a29.538 29.538 0 1 1 0 59.077H196.923A187.077 187.077 0 0 1 9.846 827.077V196.923A187.077 187.077 0 0 1 196.923 9.846h472.615a187.077 187.077 0 0 1 187.077 187.077V330.24a29.538 29.538 0 1 1-59.077 0V196.923a128 128 0 0 0-128-128H196.923a128 128 0 0 0-128 128v630.154a128 128 0 0 0 128 128h157.539z m-128-718.77H640a29.538 29.538 0 1 1 0 59.078H226.462a29.538 29.538 0 0 1 0-59.077z m0 196.924H561.23a29.538 29.538 0 1 1 0 59.077H226.46a29.538 29.538 0 1 1 0-59.077z m0 196.923h216.615a29.538 29.538 0 1 1 0 59.077H226.462a29.538 29.538 0 1 1 0-59.077z" p-id="4274" fill="#ffffff"></path></svg>