<?xml version="1.0" standalone="no"?><!DOCTYPE svg PUBLIC "-//W3C//DTD SVG 1.1//EN" "http://www.w3.org/Graphics/SVG/1.1/DTD/svg11.dtd"><svg t="1749112277202" class="icon" viewBox="0 0 1024 1024" version="1.1" xmlns="http://www.w3.org/2000/svg" p-id="5684" xmlns:xlink="http://www.w3.org/1999/xlink" width="200" height="200"><path d="M526.13994044 906.56874947l-2.56168816 2.56168819a219.57328512 219.57328512 0 0 1-155.31150309 64.33497199H118.39235076a73.19109503 73.19109503 0 0 1-73.19109374-73.19109374v-249.87439843a219.57328512 219.57328512 0 0 1 64.33497199-155.31150309l2.56168819-2.56168816 414.04202324 414.04202324z" fill="#3D7EFF" p-id="5685"></path><path d="M925.03140837 197.12746664a219.57328512 219.57328512 0 0 1 0 310.54981622l-401.45315609 401.4531548a219.57328512 219.57328512 0 0 1-155.31150309 64.33497199H118.39235076a73.19109503 73.19109503 0 0 1-73.19109374-73.19109374v-249.87439843a219.57328512 219.57328512 0 0 1 64.33497199-155.31150309l401.4531548-401.45315609a219.57328512 219.57328512 0 0 1 310.54981622 0l103.49220834 103.49220834z m-51.74610481 51.74610351l-103.49220704-103.49220704a146.3821901 146.3821901 0 0 0-199.07977839-7.46549212l-7.97782949 7.46549212L161.35552375 546.83451793a146.3821901 146.3821901 0 0 0-42.30445312 90.68376614l-0.58552861 12.88163341v249.87439843h249.87439843a146.3821901 146.3821901 0 0 0 94.05055663-34.1802425l9.51484291-8.70973926L769.71990527 559.42338639 459.24328028 248.87357015l51.74610353-51.74610351 310.47662501 310.47662495 51.81929474-51.67291356a146.3821901 146.3821901 0 0 0 7.46549212-199.07977838l-7.46549212-7.9778295z" fill="#666666" p-id="5686"></path></svg>